<?xml version="1.0" encoding="UTF-8"?><svg id="uuid-27268f00-c43c-49c8-b499-890c9d807977" xmlns="http://www.w3.org/2000/svg" xmlns:xlink="http://www.w3.org/1999/xlink" viewBox="0 0 512 512"><defs><clipPath id="uuid-0615d3fc-04d6-41a7-8b6c-d39aa707dc70"><rect width="512" height="512" style="fill:#2edb88;"/></clipPath></defs><rect width="512" height="512" style="fill:#2edb88;"/><g style="clip-path:url(#uuid-0615d3fc-04d6-41a7-8b6c-d39aa707dc70);"><path d="M10.38,321.73c-18.25-24.33,37.72-104.15,96.3-154.7C241.21,50.96,447.03,39.67,462.06,78.14c16.42,42.01-190.5,154.27-212.99,166.47-17.94,9.73-210.77,114.35-238.7,77.12Z" style="fill:#3442d9;"/><path d="M107.08,247.06c13.17-34.09,27.05-86.66,4.9-133.42C84.5,55.64,19.53,44.43,23.84,29.17c5.66-20.04,125.05-26.91,216.66,36.72,39.25,27.26,63.21,60.64,77.12,84.46-70.18,32.23-140.36,64.47-210.54,96.7Z" style="fill:#3442d9;"/><path id="uuid-28d109ba-2650-49f1-ad8a-5600c6b9e1e4" d="M-802.6,1575.83c-34.62-345.37,31.91-524.15,144.7-606.52,155.96-113.9,340.77.97,525.75-105.76C54.02,756.13,111.37,498.62,127.65,275.14c75.94,1.18,151.88,2.36,227.81,3.54,11.8,131.61,16.86,332.64-31.64,569.18-58.98,287.64-122.18,596.19-376.2,746.12-306.97,181.19-688.3,10.63-750.23-18.15h.01Z" style="fill:#f1eaa5;"/><circle cx="241.56" cy="276.91" r="113.92" style="fill:#f1eaa5;"/><path id="uuid-fa397293-26e6-49d6-96a2-05016a4ea2fe" d="M411.3,218.93c-2.62-7.68-44.54-10.8-63.74,10.97-25.48,28.9-4.2,93.94,23.3,98.85,30.52,5.45,65.55-63.73,60.84-67.96-4.33-3.89-45.73,44.16-57.37,36.04-7.18-5.01-1.45-30.34,10.27-48.51,12.79-19.81,28.39-24.41,26.69-29.4h.01Z" style="fill:#3442d9;"/><path d="M317.06,164.2c7.86,12.82,7.82,19.57,5.46,23.34-11.28,18.04-77.09-29.13-125.95-4.08-38.68,19.83-47.24,74.93-66.06,71.12-5.96-1.21-9.72-7.66-11.94-12.8,6.99-12.96,29.17-50.09,75.69-71.6,57.7-26.68,111.02-10,122.8-5.99Z" style="fill:#ff3f10;"/><path id="uuid-90d47ae5-7abb-4ead-89a7-818006ed98ba" d="M227.06,317.54c12.3,43.66,68.5,29.26,94.12,75.45,31.63,57.02-31.16,120.34,7.41,189.91,8.82,15.91,19.02,25.07,27.6,30.72,25.6,16.86,61.65,18.85,85.61,6.5,45.01-23.2,57.05-102.04,37.92-157.53-21.24-61.6-91.91-126.36-102.95-136.47-12.16-11.14-37.56-33.12-38.02-63.74-.21-13.71,4.65-25.04,8.82-32.48-4.82-2.68-38.16-20.51-72.91-6-38.36,16.02-56.43,62.27-47.6,93.63h0Z" style="fill:#ff3f10;"/><path id="uuid-bc964463-1503-4cc7-959f-1b8761899483" d="M317.69,282.43c-3.89-2.62-42.64-27.77-88.8-10.99-47.19,17.16-60.36,62.95-61.49,67.16,3.29,2.46,41.35,29.97,87.68,14.35,50.04-16.86,62.06-67.97,62.61-70.52h0Z" style="fill:#fff;"/><path id="uuid-f4430756-2f0f-4301-a35a-fc75562929be" d="M233.94,290.37c-10.66,5.02-14.85,20.34-7.97,30.91,5.76,8.86,17.86,12.18,26.86,6.66,10.08-6.18,12.18-20.95,5.45-30.52-5.5-7.82-16.04-10.96-24.34-7.04h0Z" style="fill:#3442d9;"/></g></svg>